<?xml version="1.0" encoding="utf-8"?>
<svg xmlns="http://www.w3.org/2000/svg" width="753" height="185" viewBox="0 0 753 185" fill="none">
<circle cx="92.5" cy="92.5009" r="92.5" fill="#0D1117"/>
<path d="M128.066 91.9323H156.38C156.07 91.4147 155.715 90.9248 155.32 90.4683C147.697 83.5806 140.663 76.216 134.745 67.7311C131.547 63.1504 127.45 59.2019 123.208 54.3384C127.65 55.5473 131.536 56.3903 135.3 57.6658C154.202 63.904 170.943 75.3755 183.573 90.7456C184.497 91.9403 184.998 93.4066 185 94.9159C184.484 116.854 177.322 136.558 162.882 152.957C145.316 172.921 122.875 183.757 96.0601 184.949C94.2509 185.056 92.4371 184.842 90.7026 184.317C91.2832 184.133 91.8418 183.886 92.3682 183.58C104.414 174.76 114.602 163.655 122.348 150.899C123.281 149.374 124.086 148.986 125.851 149.535C131.747 151.376 137.732 152.94 143.617 154.765C145.055 155.208 145.871 155.058 146.504 153.716C149.563 147.234 152.683 140.778 155.642 134.251C155.909 133.663 155.442 132.371 154.898 131.85C152.578 129.632 150.096 127.569 147.525 125.323C141.318 130.813 134.307 135.527 126.018 137.495C121.332 138.604 118.867 141.133 116.58 145.115C107.297 161.231 94.2724 173.742 78.2721 183.142C77.3484 183.707 76.2606 183.943 75.1853 183.813C54.6436 179.526 37.2054 169.815 23.3814 153.899C23.1297 153.628 22.8961 153.341 22.6819 153.04C22.6322 152.938 22.6148 152.824 22.6319 152.713C29.1386 153.75 35.6509 155.07 42.2298 155.785C62.7715 158.003 82.597 154.704 101.54 146.574C113.959 141.244 125.801 134.789 136.3 126.16C140.816 122.427 144.347 117.643 146.582 112.229C147.059 110.913 147.005 109.464 146.432 108.187C142.773 101.038 136.522 96.6683 129.587 93.108C129.032 92.8363 128.51 92.5978 127.972 92.3427L128.066 91.9323ZM158.018 96.3688C151.356 101.981 145.338 108.874 150.801 118.723C152.722 122.195 154.56 125.705 156.442 129.199C159.973 118.124 160.295 107.366 158.018 96.3633V96.3688Z" fill="white"/>
<path d="M183.268 76.7813C161.521 54.9037 135.645 43.2578 104.638 41.9269L114.076 58.2311C104.715 50.9053 95.0608 44.2949 82.7691 40.6403C87.3938 37.8286 91.3577 35.2111 95.5105 32.9263C111.2 24.2972 127.878 19.0622 145.915 18.7516C147.174 18.6998 148.416 19.0494 149.463 19.7498C167.599 34.065 178.888 52.5505 183.329 75.2063C183.357 75.7321 183.336 76.2592 183.268 76.7813Z" fill="white"/>
<path d="M45.4109 68.0249C45.1926 57.5916 46.6164 47.1887 49.6302 37.1967C52.9376 26.0259 58.0985 15.4889 64.8977 6.02458C65.9589 4.41616 67.6059 3.28422 69.4891 2.8691C91.4076 -2.46581 112.543 -0.380647 132.924 9.29097C133.318 9.47952 133.679 9.72353 134.59 10.267C115.774 12.8845 98.897 19.079 83.5573 29.3108C68.2177 39.5425 55.8816 52.7966 45.4109 68.0249Z" fill="white"/>
<path d="M51.4511 9.8667C42.2074 26.2985 37.0164 43.3569 35.8561 61.5577C34.7013 79.6476 37.6271 97.1885 43.1123 114.646C40.8916 112.844 38.6376 111.097 36.489 109.223C34.3405 107.348 32.2141 105.424 30.2044 103.389C19.1008 92.1087 11.0284 78.8767 5.32118 64.1752C4.96855 63.2689 4.91793 62.2732 5.17683 61.3359C12.2276 40.3234 31.2037 19.0836 51.4511 9.8667Z" fill="white"/>
<path d="M77.8779 142.763C72.2706 143.728 66.691 144.981 61.0504 145.608C45.7584 147.369 30.2656 145.706 15.6977 140.739C14.1115 140.161 12.7688 139.062 11.8891 137.622C1.86258 119.743 -1.7572 100.583 0.785533 80.2524C0.943034 79.5362 1.15081 78.832 1.40734 78.145C17.8185 110.648 43.7843 131.195 77.8668 142.036L77.8779 142.763Z" fill="white"/>
<path d="M98.6303 118.774C83.9458 124.054 70.0441 123.887 56.1645 118.918C55.4272 118.595 54.8345 118.013 54.499 117.282C48.8232 104.499 45.9026 90.6665 45.927 76.6826C57.5136 97.8282 74.2357 112.546 98.6303 118.774Z" fill="white"/>
<path d="M80.0373 71.3612C85.9225 69.3404 92.2182 68.8126 98.3583 69.825C98.9896 69.9501 99.5638 70.2749 99.9961 70.7512C103.61 74.8882 105.975 79.6686 107.513 85.5026L80.0373 71.3612Z" fill="white"/>
<path d="M266.5 150V42H311.125C312.175 42 313.525 42.05 315.175 42.15C316.825 42.2 318.35 42.35 319.75 42.6C326 43.55 331.15 45.625 335.2 48.825C339.3 52.025 342.325 56.075 344.275 60.975C346.275 65.825 347.275 71.225 347.275 77.175C347.275 83.075 346.275 88.475 344.275 93.375C342.275 98.225 339.225 102.25 335.125 105.45C331.075 108.65 325.95 110.725 319.75 111.675C318.35 111.875 316.8 112.025 315.1 112.125C313.45 112.225 312.125 112.275 311.125 112.275H284.575V150H266.5ZM284.575 95.4H310.375C311.375 95.4 312.5 95.35 313.75 95.25C315 95.15 316.15 94.95 317.2 94.65C320.2 93.9 322.55 92.575 324.25 90.675C326 88.775 327.225 86.625 327.925 84.225C328.675 81.825 329.05 79.475 329.05 77.175C329.05 74.875 328.675 72.525 327.925 70.125C327.225 67.675 326 65.5 324.25 63.6C322.55 61.7 320.2 60.375 317.2 59.625C316.15 59.325 315 59.15 313.75 59.1C312.5 59 311.375 58.95 310.375 58.95H284.575V95.4ZM362.301 150V69H378.276V88.725L376.326 86.175C377.326 83.475 378.651 81.025 380.301 78.825C382.001 76.575 384.026 74.725 386.376 73.275C388.376 71.925 390.576 70.875 392.976 70.125C395.426 69.325 397.926 68.85 400.476 68.7C403.026 68.5 405.501 68.6 407.901 69V85.875C405.501 85.175 402.726 84.95 399.576 85.2C396.476 85.45 393.676 86.325 391.176 87.825C388.676 89.175 386.626 90.9 385.026 93C383.476 95.1 382.326 97.5 381.576 100.2C380.826 102.85 380.451 105.725 380.451 108.825V150H362.301ZM456.523 152.25C448.423 152.25 441.348 150.425 435.298 146.775C429.248 143.125 424.548 138.1 421.198 131.7C417.898 125.25 416.248 117.85 416.248 109.5C416.248 101 417.948 93.55 421.348 87.15C424.748 80.75 429.473 75.75 435.523 72.15C441.573 68.55 448.573 66.75 456.523 66.75C464.673 66.75 471.773 68.575 477.823 72.225C483.873 75.875 488.573 80.925 491.923 87.375C495.273 93.775 496.948 101.15 496.948 109.5C496.948 117.9 495.248 125.325 491.848 131.775C488.498 138.175 483.798 143.2 477.748 146.85C471.698 150.45 464.623 152.25 456.523 152.25ZM456.523 135.3C463.723 135.3 469.073 132.9 472.573 128.1C476.073 123.3 477.823 117.1 477.823 109.5C477.823 101.65 476.048 95.4 472.498 90.75C468.948 86.05 463.623 83.7 456.523 83.7C451.673 83.7 447.673 84.8 444.523 87C441.423 89.15 439.123 92.175 437.623 96.075C436.123 99.925 435.373 104.4 435.373 109.5C435.373 117.35 437.148 123.625 440.698 128.325C444.298 132.975 449.573 135.3 456.523 135.3ZM569.498 150V111C569.498 108.45 569.323 105.625 568.973 102.525C568.623 99.425 567.798 96.45 566.498 93.6C565.248 90.7 563.348 88.325 560.798 86.475C558.298 84.625 554.898 83.7 550.598 83.7C548.298 83.7 546.023 84.075 543.773 84.825C541.523 85.575 539.473 86.875 537.623 88.725C535.823 90.525 534.373 93.025 533.273 96.225C532.173 99.375 531.623 103.425 531.623 108.375L520.898 103.8C520.898 96.9 522.223 90.65 524.873 85.05C527.573 79.45 531.523 75 536.723 71.7C541.923 68.35 548.323 66.675 555.923 66.675C561.923 66.675 566.873 67.675 570.773 69.675C574.673 71.675 577.773 74.225 580.073 77.325C582.373 80.425 584.073 83.725 585.173 87.225C586.273 90.725 586.973 94.05 587.273 97.2C587.623 100.3 587.798 102.825 587.798 104.775V150H569.498ZM513.323 150V69H529.448V94.125H531.623V150H513.323ZM654.844 150C649.494 151 644.244 151.425 639.094 151.275C633.994 151.175 629.419 150.25 625.369 148.5C621.319 146.7 618.244 143.875 616.144 140.025C614.294 136.525 613.319 132.95 613.219 129.3C613.119 125.65 613.069 121.525 613.069 116.925V46.5H631.069V115.875C631.069 119.125 631.094 121.975 631.144 124.425C631.244 126.875 631.769 128.875 632.719 130.425C634.519 133.425 637.394 135.1 641.344 135.45C645.294 135.8 649.794 135.6 654.844 134.85V150ZM598.369 83.175V69H654.844V83.175H598.369ZM703.935 152.25C695.835 152.25 688.76 150.425 682.71 146.775C676.66 143.125 671.96 138.1 668.61 131.7C665.31 125.25 663.66 117.85 663.66 109.5C663.66 101 665.36 93.55 668.76 87.15C672.16 80.75 676.885 75.75 682.935 72.15C688.985 68.55 695.985 66.75 703.935 66.75C712.085 66.75 719.185 68.575 725.235 72.225C731.285 75.875 735.985 80.925 739.335 87.375C742.685 93.775 744.36 101.15 744.36 109.5C744.36 117.9 742.66 125.325 739.26 131.775C735.91 138.175 731.21 143.2 725.16 146.85C719.11 150.45 712.035 152.25 703.935 152.25ZM703.935 135.3C711.135 135.3 716.485 132.9 719.985 128.1C723.485 123.3 725.235 117.1 725.235 109.5C725.235 101.65 723.46 95.4 719.91 90.75C716.36 86.05 711.035 83.7 703.935 83.7C699.085 83.7 695.085 84.8 691.935 87C688.835 89.15 686.535 92.175 685.035 96.075C683.535 99.925 682.785 104.4 682.785 109.5C682.785 117.35 684.56 123.625 688.11 128.325C691.71 132.975 696.985 135.3 703.935 135.3Z" fill="white"/>
</svg>